<svg width="24" height="25" viewBox="0 0 24 25" fill="none" xmlns="http://www.w3.org/2000/svg">
<path d="M12 23.099C11.37 23.099 10.78 22.8589 10.34 22.4085L8.82001 20.8873C8.70001 20.7672 8.38 20.6371 8.22 20.6371H6.06C4.76 20.6371 3.70999 19.5861 3.70999 18.285V16.1233C3.70999 15.9632 3.57999 15.6429 3.45999 15.5228L1.94 14.0015C1.5 13.5612 1.25 12.9706 1.25 12.34C1.25 11.7095 1.49 11.119 1.94 10.6786L3.45999 9.15736C3.57999 9.03726 3.70999 8.71701 3.70999 8.55688V6.39516C3.70999 5.09408 4.76 4.0431 6.06 4.0431H8.22C8.38 4.0431 8.70001 3.91299 8.82001 3.79289L10.34 2.2716C11.22 1.39087 12.78 1.39087 13.66 2.2716L15.18 3.79289C15.3 3.91299 15.62 4.0431 15.78 4.0431H17.94C19.24 4.0431 20.29 5.09408 20.29 6.39516V8.55688C20.29 8.71701 20.42 9.03726 20.54 9.15736L22.06 10.6786C22.5 11.119 22.75 11.7095 22.75 12.34C22.75 12.9706 22.51 13.5612 22.06 14.0015L20.54 15.5228C20.42 15.6429 20.29 15.9632 20.29 16.1233V18.285C20.29 19.5861 19.24 20.6371 17.94 20.6371H15.78C15.62 20.6371 15.3 20.7672 15.18 20.8873L13.66 22.4085C13.22 22.8589 12.63 23.099 12 23.099ZM4.51999 14.4618C4.91999 14.8621 5.20999 15.5628 5.20999 16.1233V18.285C5.20999 18.7554 5.59 19.1358 6.06 19.1358H8.22C8.78 19.1358 9.48001 19.4259 9.88 19.8263L11.4 21.3475C11.72 21.6678 12.28 21.6678 12.6 21.3475L14.12 19.8263C14.52 19.4259 15.22 19.1358 15.78 19.1358H17.94C18.41 19.1358 18.79 18.7554 18.79 18.285V16.1233C18.79 15.5628 19.08 14.8621 19.48 14.4618L21 12.9405C21.16 12.7804 21.25 12.5702 21.25 12.34C21.25 12.1098 21.16 11.8998 21 11.7396L19.48 10.2183C19.08 9.81797 18.79 9.11734 18.79 8.55688V6.39516C18.79 5.92477 18.41 5.54435 17.94 5.54435H15.78C15.22 5.54435 14.52 5.25417 14.12 4.85384L12.6 3.33255C12.28 3.01228 11.72 3.01228 11.4 3.33255L9.88 4.85384C9.48001 5.25417 8.78 5.54435 8.22 5.54435H6.06C5.59 5.54435 5.20999 5.92477 5.20999 6.39516V8.55688C5.20999 9.11734 4.91999 9.81797 4.51999 10.2183L3 11.7396C2.84 11.8998 2.75 12.1098 2.75 12.34C2.75 12.5702 2.84 12.7804 3 12.9405L4.51999 14.4618Z" fill="#9197B3"/>
<path d="M15.0002 16.3431C14.4402 16.3431 13.9902 15.8927 13.9902 15.3422C13.9902 14.7918 14.4402 14.3414 14.9902 14.3414C15.5402 14.3414 15.9902 14.7918 15.9902 15.3422C15.9902 15.8927 15.5502 16.3431 15.0002 16.3431Z" fill="#9197B3"/>
<path d="M9.01001 10.3381C8.45001 10.3381 8 9.88769 8 9.33723C8 8.78677 8.45 8.3364 9 8.3364C9.55 8.3364 10 8.78677 10 9.33723C10 9.88769 9.56001 10.3381 9.01001 10.3381Z" fill="#9197B3"/>
<path d="M8.99945 16.0924C8.80945 16.0924 8.61945 16.0223 8.46945 15.8722C8.17945 15.5819 8.17945 15.1015 8.46945 14.8113L14.4695 8.80623C14.7595 8.51599 15.2395 8.51599 15.5295 8.80623C15.8195 9.09647 15.8195 9.57693 15.5295 9.86717L9.52945 15.8722C9.37945 16.0223 9.18945 16.0924 8.99945 16.0924Z" fill="#9197B3"/>
</svg>
