<svg width="37" height="38" viewBox="0 0 37 38" fill="none" xmlns="http://www.w3.org/2000/svg">
<path d="M18.5003 34.9476C17.4674 34.9476 16.419 34.7162 15.602 34.2379L7.12284 29.3467C3.66951 27.0169 3.45367 26.662 3.45367 23.0052V14.0869C3.45367 10.4301 3.65409 10.0752 7.04576 7.77623L15.5865 2.83877C17.2053 1.89757 19.749 1.89757 21.3678 2.83877L29.8778 7.74537C33.3311 10.0752 33.547 10.4301 33.547 14.0869V22.9897C33.547 26.6465 33.3465 27.0014 29.9549 29.3004L21.414 34.2379C20.5815 34.7162 19.5332 34.9476 18.5003 34.9476ZM18.5003 4.45888C17.8528 4.45888 17.2207 4.58231 16.7736 4.84461L8.29451 9.75121C5.78159 11.4485 5.78159 11.4485 5.78159 14.0869V22.9897C5.78159 25.6282 5.78159 25.6282 8.35617 27.3717L16.7736 32.232C17.6832 32.7566 19.3328 32.7566 20.2424 32.232L28.7215 27.3254C31.219 25.6282 31.219 25.6282 31.219 22.9897V14.0869C31.219 11.4485 31.219 11.4485 28.6445 9.70492L20.227 4.84461C19.7799 4.58231 19.1478 4.45888 18.5003 4.45888Z" fill="black"/>
<path d="M18.5 24.3324C15.3088 24.3324 12.7188 21.7402 12.7188 18.5463C12.7188 15.3524 15.3088 12.7603 18.5 12.7603C21.6912 12.7603 24.2812 15.3524 24.2812 18.5463C24.2812 21.7402 21.6912 24.3324 18.5 24.3324ZM18.5 15.0747C16.5883 15.0747 15.0312 16.6331 15.0312 18.5463C15.0312 20.4596 16.5883 22.018 18.5 22.018C20.4117 22.018 21.9688 20.4596 21.9688 18.5463C21.9688 16.6331 20.4117 15.0747 18.5 15.0747Z" fill="black"/>
</svg>
