<svg width="24" height="25" viewBox="0 0 24 25" fill="none" xmlns="http://www.w3.org/2000/svg">
<path d="M15.0006 22.9917H9.00063C7.68063 22.9917 6.58063 22.8616 5.65063 22.5813C5.31063 22.4812 5.09063 22.151 5.11063 21.8007C5.36063 18.8082 8.39063 16.4561 12.0006 16.4561C15.6106 16.4561 18.6306 18.7982 18.8906 21.8007C18.9206 22.161 18.7006 22.4812 18.3506 22.5813C17.4206 22.8616 16.3206 22.9917 15.0006 22.9917ZM6.72063 21.3003C7.38063 21.4304 8.13063 21.4904 9.00063 21.4904H15.0006C15.8706 21.4904 16.6206 21.4304 17.2806 21.3003C16.7506 19.3787 14.5606 17.9574 12.0006 17.9574C9.44063 17.9574 7.25063 19.3787 6.72063 21.3003Z" fill="#9197b3"/>
<path d="M15 2.22455H9C4 2.22455 2 4.22622 2 9.23039V15.2354C2 19.0186 3.14 21.0903 5.86 21.8609C6.08 19.2588 8.75 17.207 12 17.207C15.25 17.207 17.92 19.2588 18.14 21.8609C20.86 21.0903 22 19.0186 22 15.2354V9.23039C22 4.22622 20 2.22455 15 2.22455ZM12 14.4047C10.02 14.4047 8.42 12.7934 8.42 10.8117C8.42 8.83008 10.02 7.22872 12 7.22872C13.98 7.22872 15.58 8.83008 15.58 10.8117C15.58 12.7934 13.98 14.4047 12 14.4047Z" stroke="#9197b3" stroke-width="1.5" stroke-linecap="round" stroke-linejoin="round"/>
<path d="M11.9999 15.1553C9.60992 15.1553 7.66992 13.2037 7.66992 10.8117C7.66992 8.41973 9.60992 6.47809 11.9999 6.47809C14.3899 6.47809 16.3299 8.41973 16.3299 10.8117C16.3299 13.2037 14.3899 15.1553 11.9999 15.1553ZM11.9999 7.97934C10.4399 7.97934 9.16992 9.25042 9.16992 10.8117C9.16992 12.383 10.4399 13.6541 11.9999 13.6541C13.5599 13.6541 14.8299 12.383 14.8299 10.8117C14.8299 9.25042 13.5599 7.97934 11.9999 7.97934Z" fill="#9197b3"/>
</svg>
