<svg width="24" height="25" viewBox="0 0 24 25" fill="none" xmlns="http://www.w3.org/2000/svg">
<path d="M10.7516 17.1508V19.1825C10.7516 20.9039 9.15158 22.2951 7.18158 22.2951C5.21158 22.2951 3.60156 20.9039 3.60156 19.1825V17.1508C3.60156 18.8722 5.20158 20.0932 7.18158 20.0932C9.15158 20.0932 10.7516 18.8622 10.7516 17.1508Z" stroke="#9197B3" stroke-width="1.5" stroke-linecap="round" stroke-linejoin="round"/>
<path d="M10.7501 14.3981C10.7501 14.8985 10.6101 15.3589 10.3701 15.7592C9.78006 16.73 8.57004 17.3405 7.17004 17.3405C5.77004 17.3405 4.56003 16.72 3.97003 15.7592C3.73003 15.3589 3.59009 14.8985 3.59009 14.3981C3.59009 13.5374 3.99007 12.7667 4.63007 12.2063C5.28007 11.6358 6.17003 11.2955 7.16003 11.2955C8.15003 11.2955 9.04006 11.6458 9.69006 12.2063C10.3501 12.7567 10.7501 13.5374 10.7501 14.3981Z" stroke="#9197B3" stroke-width="1.5" stroke-linecap="round" stroke-linejoin="round"/>
<path d="M10.7516 14.3981V17.1504C10.7516 18.8718 9.15158 20.0928 7.18158 20.0928C5.21158 20.0928 3.60156 18.8618 3.60156 17.1504V14.3981C3.60156 12.6767 5.20158 11.2855 7.18158 11.2855C8.17158 11.2855 9.06161 11.6358 9.71161 12.1963C10.3516 12.7567 10.7516 13.5374 10.7516 14.3981Z" stroke="#9197B3" stroke-width="1.5" stroke-linecap="round" stroke-linejoin="round"/>
<path d="M22 11.2554V13.3172C22 13.8676 21.56 14.3179 21 14.3379H19.0399C17.9599 14.3379 16.97 13.5473 16.88 12.4664C16.82 11.8358 17.0599 11.2454 17.4799 10.835C17.8499 10.4547 18.36 10.2346 18.92 10.2346H21C21.56 10.2546 22 10.7049 22 11.2554Z" stroke="#9197B3" stroke-width="1.5" stroke-linecap="round" stroke-linejoin="round"/>
<path d="M2 10.7851V8.78341C2 6.06114 3.64 4.15955 6.19 3.83929C6.45 3.79925 6.72 3.77924 7 3.77924H16C16.26 3.77924 16.51 3.78923 16.75 3.82927C19.33 4.12952 21 6.04112 21 8.78341V10.2346H18.92C18.36 10.2346 17.85 10.4548 17.48 10.8351C17.06 11.2455 16.82 11.836 16.88 12.4665C16.97 13.5474 17.96 14.338 19.04 14.338H21V15.7893C21 18.7918 19 20.7934 16 20.7934H13.5" stroke="#9197B3" stroke-width="1.5" stroke-linecap="round" stroke-linejoin="round"/>
</svg>
