<svg width="24" height="25" viewBox="0 0 24 25" fill="none" xmlns="http://www.w3.org/2000/svg">
<path d="M15 22.9384H9C3.57 22.9384 1.25 20.6165 1.25 15.1819V9.17694C1.25 3.74241 3.57 1.42047 9 1.42047H15C20.43 1.42047 22.75 3.74241 22.75 9.17694V15.1819C22.75 20.6165 20.43 22.9384 15 22.9384ZM9 2.92172C4.39 2.92172 2.75 4.56309 2.75 9.17694V15.1819C2.75 19.7958 4.39 21.4372 9 21.4372H15C19.61 21.4372 21.25 19.7958 21.25 15.1819V9.17694C21.25 4.56309 19.61 2.92172 15 2.92172H9Z" fill="#9197B3"/>
<path d="M12.0006 13.26C11.8706 13.26 11.7406 13.23 11.6206 13.16L6.32061 10.0974C5.96061 9.88723 5.84059 9.42685 6.05059 9.07656C6.26059 8.71626 6.72061 8.59616 7.07061 8.80633L11.9906 11.6587L16.8806 8.82635C17.2406 8.61617 17.7006 8.74628 17.9006 9.09657C18.1006 9.44687 17.9806 9.91726 17.6306 10.1174L12.3706 13.16C12.2606 13.22 12.1306 13.26 12.0006 13.26Z" fill="#9197B3"/>
<path d="M12 18.705C11.59 18.705 11.25 18.3647 11.25 17.9544V12.5098C11.25 12.0995 11.59 11.7592 12 11.7592C12.41 11.7592 12.75 12.0995 12.75 12.5098V17.9544C12.75 18.3647 12.41 18.705 12 18.705Z" fill="#9197B3"/>
<path d="M12.0002 18.9349C11.4202 18.9349 10.8503 18.8048 10.3903 18.5546L7.19025 16.7731C6.23025 16.2426 5.49023 14.9716 5.49023 13.8707V10.4778C5.49023 9.38693 6.24025 8.11586 7.19025 7.57541L10.3903 5.79392C11.3103 5.2835 12.6902 5.2835 13.6102 5.79392L16.8102 7.57541C17.7702 8.10585 18.5103 9.37692 18.5103 10.4778V13.8707C18.5103 14.9616 17.7602 16.2326 16.8102 16.7731L13.6102 18.5546C13.1502 18.8148 12.5802 18.9349 12.0002 18.9349ZM12.0002 6.92486C11.6702 6.92486 11.3502 6.98491 11.1202 7.11502L7.92026 8.89651C7.43026 9.16673 6.99023 9.92737 6.99023 10.4778V13.8707C6.99023 14.4311 7.43026 15.1818 7.92026 15.452L11.1202 17.2335C11.5802 17.4937 12.4202 17.4937 12.8802 17.2335L16.0802 15.452C16.5702 15.1818 17.0103 14.4211 17.0103 13.8707V10.4778C17.0103 9.91737 16.5702 9.16673 16.0802 8.89651L12.8802 7.11502C12.6502 6.98491 12.3302 6.92486 12.0002 6.92486Z" fill="#9197B3"/>
</svg>
