<svg width="24" height="25" viewBox="0 0 24 25" fill="none" xmlns="http://www.w3.org/2000/svg">
<path d="M9 22.1344H15C20 22.1344 22 20.1327 22 15.1286V9.12355C22 4.11938 20 2.11771 15 2.11771H9C4 2.11771 2 4.11938 2 9.12355V15.1286C2 20.1327 4 22.1344 9 22.1344Z" stroke="#9197B3" stroke-width="1.5" stroke-linecap="round" stroke-linejoin="round"/>
<path d="M16.28 13.7374C15.15 14.8683 13.53 15.2186 12.1 14.7682L9.51001 17.3504C9.33001 17.5406 8.96001 17.6607 8.69001 17.6206L7.49001 17.4605C7.09001 17.4105 6.73001 17.0301 6.67001 16.6398L6.51001 15.4388C6.47001 15.1786 6.60001 14.8083 6.78001 14.6181L9.36001 12.036C8.92001 10.6048 9.26001 8.98343 10.39 7.85249C12.01 6.23114 14.65 6.23114 16.28 7.85249C17.9 9.46383 17.9 12.106 16.28 13.7374Z" stroke="#9197B3" stroke-width="1.5" stroke-miterlimit="10" stroke-linecap="round" stroke-linejoin="round"/>
<path d="M10.45 16.4089L9.59998 15.5489" stroke="#9197B3" stroke-width="1.5" stroke-miterlimit="10" stroke-linecap="round" stroke-linejoin="round"/>
<path d="M13.3945 10.825H13.4035" stroke="#9197B3" stroke-width="2" stroke-linecap="round" stroke-linejoin="round"/>
</svg>
