<svg width="24" height="25" viewBox="0 0 24 25" fill="none" xmlns="http://www.w3.org/2000/svg">
<path d="M8 22.7217C7.72 22.7217 7.42998 22.6516 7.16998 22.5115C6.59998 22.2112 6.25 21.6107 6.25 20.9702V19.5491C3.23 19.2389 1.25 17.0169 1.25 13.8343V7.82929C1.25 4.38642 3.56 2.07449 7 2.07449H17C20.44 2.07449 22.75 4.38642 22.75 7.82929V13.8343C22.75 17.2771 20.44 19.5891 17 19.5891H13.23L8.96997 22.4315C8.67997 22.6217 8.34 22.7217 8 22.7217ZM7 3.56573C4.42 3.56573 2.75 5.23712 2.75 7.81927V13.8244C2.75 16.4065 4.42 18.0779 7 18.0779C7.41 18.0779 7.75 18.4182 7.75 18.8285V20.9603C7.75 21.0904 7.83 21.1505 7.88 21.1805C7.93001 21.2105 8.03001 21.2405 8.14001 21.1705L12.59 18.208C12.71 18.1279 12.86 18.0779 13.01 18.0779H17.01C19.59 18.0779 21.26 16.4065 21.26 13.8244V7.81927C21.26 5.23712 19.59 3.56573 17.01 3.56573H7Z" fill="#9197B3"/>
<path d="M11.9998 12.5032C11.5898 12.5032 11.2498 12.1629 11.2498 11.7525V11.5424C11.2498 10.3814 12.0998 9.8109 12.4198 9.59072C12.7898 9.34051 12.9098 9.17038 12.9098 8.91016C12.9098 8.40974 12.4998 7.99936 11.9998 7.99936C11.4998 7.99936 11.0898 8.40974 11.0898 8.91016C11.0898 9.3205 10.7498 9.66079 10.3398 9.66079C9.92984 9.66079 9.58984 9.3205 9.58984 8.91016C9.58984 7.57905 10.6698 6.49811 11.9998 6.49811C13.3298 6.49811 14.4098 7.57905 14.4098 8.91016C14.4098 10.0511 13.5698 10.6216 13.2598 10.8318C12.8698 11.092 12.7498 11.2621 12.7498 11.5424V11.7525C12.7498 12.1729 12.4098 12.5032 11.9998 12.5032Z" fill="#9197B3"/>
<path d="M12 14.9954C11.58 14.9954 11.25 14.6552 11.25 14.2448C11.25 13.8345 11.59 13.4942 12 13.4942C12.41 13.4942 12.75 13.8345 12.75 14.2448C12.75 14.6552 12.42 14.9954 12 14.9954Z" fill="#9197B3"/>
</svg>
